<svg width="32" height="26" viewBox="0 0 32 26" fill="none" xmlns="http://www.w3.org/2000/svg">
<path d="M28.7106 6.48225C28.7309 6.7665 28.7309 7.05081 28.7309 7.33506C28.7309 16.0051 22.132 25.9949 10.0711 25.9949C6.35531 25.9949 2.90356 24.9188 0 23.0508C0.527937 23.1117 1.0355 23.132 1.58375 23.132C4.64969 23.132 7.47206 22.0965 9.72587 20.33C6.84262 20.2691 4.42637 18.3808 3.59387 15.7818C4 15.8426 4.40606 15.8833 4.8325 15.8833C5.42131 15.8833 6.01019 15.802 6.55837 15.6599C3.55331 15.0508 1.29944 12.4112 1.29944 9.22338V9.14219C2.1725 9.6295 3.18781 9.93406 4.26388 9.97463C2.49738 8.79694 1.34006 6.78681 1.34006 4.51269C1.34006 3.29444 1.66488 2.17769 2.23344 1.20306C5.46187 5.18275 10.3147 7.78169 15.7563 8.066C15.6548 7.57869 15.5938 7.07113 15.5938 6.5635C15.5938 2.94925 18.5177 0.00512695 22.1522 0.00512695C24.0405 0.00512695 25.7461 0.797002 26.9441 2.07619C28.4263 1.79194 29.8476 1.24369 31.1065 0.49244C30.6191 2.01531 29.5836 3.2945 28.2232 4.10663C29.5431 3.96456 30.8222 3.599 31.9999 3.09144C31.1066 4.39088 29.9898 5.54819 28.7106 6.48225Z" fill="black"/>
</svg>
