<svg width="269" height="209" viewBox="0 0 269 209" fill="none" xmlns="http://www.w3.org/2000/svg">
<path d="M269 62.3633C269 65.2679 268.036 68.1918 266.053 70.6357L245.054 96.5155C242.398 99.7892 238.489 101.492 234.542 101.492C231.596 101.492 228.628 100.542 226.148 98.5862L201.75 79.3701V188.844C201.75 199.976 192.717 209 181.575 209H87.425C76.2867 209 67.25 199.972 67.25 188.844V79.3701L42.4936 98.6025C40.371 100.534 37.4036 101.122 34.4572 101.122C30.5113 101.122 26.6016 99.4184 23.9452 96.146L2.94724 70.6357C0.96336 68.2002 -0.00012207 65.2607 -0.00012207 62.3633C-0.00012207 58.474 1.72778 54.6199 5.04783 51.9996L61.79 7.23594C67.1659 3.02412 73.8489 0.71875 80.3217 0.71875H94.8225C98.0589 19.7664 114.535 34.3125 134.5 34.3125C154.465 34.3125 170.954 19.7664 174.173 0.71875H188.296C195.168 0.71875 201.838 3.02412 207.206 7.25693L263.948 52.0206C267.277 54.6367 269 58.5 269 62.3633Z" fill="black"/>
</svg>
