<svg width="28" height="29" viewBox="0 0 28 29" fill="none" xmlns="http://www.w3.org/2000/svg">
<path d="M14.0062 7.81245C10.0312 7.81245 6.82498 11.0187 6.82498 14.9937C6.82498 18.9687 10.0312 22.1749 14.0062 22.1749C17.9812 22.1749 21.1875 18.9687 21.1875 14.9937C21.1875 11.0187 17.9812 7.81245 14.0062 7.81245ZM14.0062 19.6624C11.4375 19.6624 9.33748 17.5687 9.33748 14.9937C9.33748 12.4187 11.4312 10.3249 14.0062 10.3249C16.5812 10.3249 18.675 12.4187 18.675 14.9937C18.675 17.5687 16.575 19.6624 14.0062 19.6624ZM23.1562 7.5187C23.1562 8.44995 22.4062 9.1937 21.4812 9.1937C20.55 9.1937 19.8062 8.4437 19.8062 7.5187C19.8062 6.5937 20.5562 5.8437 21.4812 5.8437C22.4062 5.8437 23.1562 6.5937 23.1562 7.5187ZM27.9125 9.2187C27.8062 6.97495 27.2937 4.98745 25.65 3.34995C24.0125 1.71245 22.025 1.19995 19.7812 1.08745C17.4687 0.956201 10.5375 0.956201 8.22498 1.08745C5.98748 1.1937 3.99999 1.7062 2.35624 3.3437C0.712488 4.9812 0.206238 6.9687 0.0937377 9.21245C-0.0375122 11.5249 -0.0375122 18.4562 0.0937377 20.7687C0.199988 23.0124 0.712488 24.9999 2.35624 26.6374C3.99999 28.2749 5.98123 28.7874 8.22498 28.8999C10.5375 29.0312 17.4687 29.0312 19.7812 28.8999C22.025 28.7937 24.0125 28.2812 25.65 26.6374C27.2875 24.9999 27.8 23.0124 27.9125 20.7687C28.0437 18.4562 28.0437 11.5312 27.9125 9.2187ZM24.925 23.2499C24.4375 24.4749 23.4937 25.4187 22.2625 25.9124C20.4187 26.6437 16.0437 26.4749 14.0062 26.4749C11.9687 26.4749 7.58748 26.6374 5.74998 25.9124C4.52498 25.4249 3.58124 24.4812 3.08749 23.2499C2.35624 21.4062 2.52499 17.0312 2.52499 14.9937C2.52499 12.9562 2.36249 8.57495 3.08749 6.73745C3.57499 5.51245 4.51873 4.5687 5.74998 4.07495C7.59373 3.3437 11.9687 3.51245 14.0062 3.51245C16.0437 3.51245 20.425 3.34995 22.2625 4.07495C23.4875 4.56245 24.4312 5.5062 24.925 6.73745C25.6562 8.5812 25.4875 12.9562 25.4875 14.9937C25.4875 17.0312 25.6562 21.4124 24.925 23.2499Z" fill="black"/>
</svg>
