<svg width="22" height="22" viewBox="0 0 22 22" fill="none" xmlns="http://www.w3.org/2000/svg">
<path d="M21.9656 16.6289L20.9666 20.9601C20.8263 21.5724 20.2881 22.0008 19.6578 22.0008C8.81719 22 0 13.1828 0 2.3418C0 1.71188 0.428355 1.17305 1.0407 1.03341L5.37195 0.0343838C6.00273 -0.111796 6.64727 0.215626 6.90938 0.812977L8.90828 5.47508C9.14195 6.02422 8.98434 6.66402 8.52242 7.04129L6.20898 8.89883C7.66906 11.8731 10.0873 14.2914 13.0625 15.7523L14.9566 13.4406C15.3299 12.9774 15.9745 12.8171 16.5236 13.055L21.1857 15.0534C21.7465 15.3484 22.1117 16.0016 21.9656 16.6289Z" fill="black"/>
</svg>
