<svg width="20" height="20" viewBox="0 0 20 20" fill="none" xmlns="http://www.w3.org/2000/svg">
<path d="M16.3668 3.17227C14.5664 1.36758 12.1687 0.375 9.6207 0.375C4.36133 0.375 0.0816406 4.65469 0.0816406 9.91406C0.0816406 11.5941 0.519922 13.2355 1.35352 14.6836L0 19.625L5.05742 18.2973C6.44961 19.0578 8.01797 19.4574 9.61641 19.4574H9.6207C14.8758 19.4574 19.25 15.1777 19.25 9.91836C19.25 7.37031 18.1672 4.97695 16.3668 3.17227ZM9.6207 17.8504C8.19414 17.8504 6.79766 17.468 5.58164 16.7461L5.29375 16.5742L2.29453 17.3605L3.09375 14.4344L2.90469 14.1336C2.10977 12.8703 1.69297 11.4137 1.69297 9.91406C1.69297 5.54414 5.25078 1.98633 9.625 1.98633C11.7434 1.98633 13.7328 2.81133 15.2281 4.31094C16.7234 5.81055 17.643 7.8 17.6387 9.91836C17.6387 14.2926 13.9906 17.8504 9.6207 17.8504ZM13.9691 11.9121C13.7328 11.7918 12.5598 11.216 12.3406 11.1387C12.1215 11.057 11.9625 11.0184 11.8035 11.259C11.6445 11.4996 11.1891 12.0324 11.0473 12.1957C10.9098 12.3547 10.768 12.3762 10.5316 12.2559C9.13086 11.5555 8.21133 11.0055 7.2875 9.41992C7.04258 8.99883 7.53242 9.02891 7.98789 8.11797C8.06523 7.95898 8.02656 7.82148 7.96641 7.70117C7.90625 7.58086 7.4293 6.40781 7.23164 5.93086C7.03828 5.4668 6.84063 5.53125 6.69453 5.52266C6.55703 5.51406 6.39805 5.51406 6.23906 5.51406C6.08008 5.51406 5.82227 5.57422 5.60312 5.81055C5.38398 6.05117 4.76953 6.62695 4.76953 7.8C4.76953 8.97305 5.62461 10.1074 5.74063 10.2664C5.86094 10.4254 7.4207 12.8316 9.81406 13.8672C11.3266 14.5203 11.9195 14.5762 12.6758 14.4645C13.1355 14.3957 14.0852 13.8887 14.2828 13.3301C14.4805 12.7715 14.4805 12.2945 14.4203 12.1957C14.3645 12.0883 14.2055 12.0281 13.9691 11.9121Z" fill="black"/>
</svg>
